<?xml version="1.0" encoding="utf-8"?>
<!-- Generator: Adobe Illustrator 16.0.0, SVG Export Plug-In . SVG Version: 6.00 Build 0)  -->
<!DOCTYPE svg PUBLIC "-//W3C//DTD SVG 1.1//EN" "http://www.w3.org/Graphics/SVG/1.1/DTD/svg11.dtd">
<svg version="1.1" id="Calque_1" xmlns="http://www.w3.org/2000/svg" xmlns:xlink="http://www.w3.org/1999/xlink" x="0px" y="0px"
	 width="1024px" height="768px" viewBox="0 0 1024 768" enable-background="new 0 0 1024 768" xml:space="preserve">
<rect x="-32" y="932" opacity="0.5" fill="#000519" width="1068" height="829"/>
<rect x="-1286" y="932" opacity="0.5" fill="#000519" width="1068" height="829"/>
<path fill="#02006C" d="M476,1376.012v-7.568l-10.373-2.477c-0.506-3.654-1.533-7.17-2.867-10.485l7.503-7.202l-3.804-6.555
	l-10.01,2.938c-2.25-2.877-4.849-5.471-7.728-7.719l2.914-9.953l-6.555-3.783l-7.365,7.507c-3.322-1.339-6.715-2.288-10.715-2.794
	v-0.004l-1.914-8.916h-7.567l-3.519,8.959v0.003c-2,0.526-6.718,1.488-10.008,2.833l0.18-0.031l-6.891-7.463l-6.504,3.784
	l2.667,10.023l0.047,0.061c-2.812,2.234-5.342,4.803-7.544,7.643l-0.106-0.062l-9.783-2.969l-3.784,6.554l7.301,7.359l0.133,0.516
	c-1.293,3.278-2.206,6.792-2.691,10.792h-0.172l-9.845,1.443v7.568l9.915,3.988h0.184c0.531,3,1.486,6.385,2.813,9.635l-0.226-0.185
	l-7.417,6.804l3.784,6.474l10-2.667l0.233-0.155c2.206,2.775,4.735,5.271,7.531,7.453l-0.166,0.286l-2.943,9.735l6.555,3.782
	l7.345-7.277l-0.346-0.257c3.241,1.288,7.738,2.207,9.738,2.709v0.002l3.519,10.661h7.567l1.914-10.674v-0.002
	c4-0.51,7.307-1.439,10.552-2.739l7.493,7.669l6.629-3.783l-2.944-10.181c2.81-2.204,5.368-4.736,7.579-7.539l10.128,2.951
	l3.79-6.553l-7.594-7.25c1.333-3.289,2.448-6.773,2.965-10.396L476,1376.012z M421.252,1401.069
	c-15.98,0-28.935-12.953-28.935-28.934s12.955-28.935,28.935-28.935c15.98,0,28.935,12.954,28.935,28.935
	S437.233,1401.069,421.252,1401.069z"/>
<path fill="#008AD4" d="M637,1374.752v-7.568l-9.41-2.477c-0.508-3.654-1.051-7.169-2.387-10.484l7.746-7.203l-3.684-6.554
	l-9.951,2.937c-2.25-2.877-4.82-5.471-7.697-7.719l2.928-9.952l-6.549-3.784l-7.82,7.507c-3.324-1.339-8.176-2.288-11.176-2.794
	v-0.002l-0.986-7.658h-7.568l-3.445,7.699v0.004c-4,0.525-6.754,1.488-10.047,2.832l0.164-0.031l-6.9-7.463l-6.51,3.784
	l2.666,10.022l0.047,0.061c-2.814,2.235-5.346,4.803-7.547,7.643l-0.105-0.062l-9.783-2.969l-3.785,6.554l7.303,7.359l0.133,0.646
	c-1.295,3.279-2.207,7.922-2.691,10.922h-0.172L528,1367.184v7.568l11.84,4.248h0.186c0.529,4,1.484,6.256,2.812,9.504l-0.227-0.249
	l-7.418,6.771l3.785,6.459l10-2.677l0.232-0.16c2.205,2.776,4.734,5.272,7.531,7.453l-0.166,0.286l-2.943,9.734l6.555,3.78
	l7.346-7.276l-0.309-0.259c3.24,1.289,5.775,2.21,9.775,2.71v0.003l3.445,11.92h7.568l0.986-11.933v-0.003
	c3-0.51,7.77-1.438,11.016-2.739l7.725,7.671l6.744-3.785l-2.887-10.181c2.811-2.202,5.396-4.734,7.607-7.539l10.143,2.952
	l3.797-6.554l-7.59-7.25c1.332-3.289,1.486-6.771,2.004-10.396L637,1374.752z M584.178,1387.226c-9.029,0-16.35-7.319-16.35-16.35
	c0-9.029,7.32-16.349,16.35-16.349c9.031,0,16.352,7.319,16.352,16.349C600.529,1379.906,593.209,1387.226,584.178,1387.226z"/>
<path fill="#0023AC" d="M554,1311.683v-7.567l-8.652-2.478c-0.506-3.656-0.674-7.169-2.008-10.485l7.936-7.201l-3.59-6.555
	l-9.904,2.936c-2.25-2.876-4.795-5.469-7.674-7.718l2.943-9.953l-6.545-3.784l-8.074,7.507c-3.326-1.339-8.432-2.287-11.432-2.794
	v-0.002l-0.473-7.588h-7.566l-4.961,7.63v0.002c-4,0.526-5.997,1.489-9.289,2.833l0.542-0.031l-6.711-7.463l-6.414,3.785
	l2.712,10.022l0.071,0.06c-2.813,2.236-5.333,4.802-7.535,7.643l-0.1-0.062l-9.782-2.969l-3.78,6.555l7.301,7.358l0.134,1.181
	c-1.293,3.278-2.206,9.456-2.69,11.456h-0.173L446,1304.114v7.568l12.356,5.317h0.185c0.53,4,1.484,5.72,2.812,8.971l-0.227-0.52
	l-7.416,6.64l3.783,6.392l10-2.711l0.234-0.176c2.206,2.777,4.735,5.264,7.531,7.447l-0.167,0.277l-2.942,9.734l6.555,3.779
	l7.344-7.278l-1.065-0.258c3.241,1.29,7.018,2.209,9.018,2.711v0.002l4.961,11.989h7.566l0.473-12.002v-0.002
	c3-0.51,8.029-1.439,11.271-2.742l7.854,7.672l6.812-3.783l-2.857-10.182c2.811-2.203,5.414-4.734,7.623-7.537l10.154,2.949
	l3.797-6.553l-7.584-7.25c1.332-3.29,0.729-6.772,1.246-10.396L554,1311.683z M502.693,1328.621
	c-11.495,0-20.813-9.319-20.813-20.814c0-11.496,9.318-20.813,20.813-20.813c11.496,0,20.814,9.318,20.814,20.813
	C523.508,1319.302,514.189,1328.621,502.693,1328.621z"/>
<image overflow="visible" width="1452" height="1622" xlink:href="../Desktop/Capture d’écran 2016-11-19 à 20.10.12.png"  transform="matrix(0.3297 0 0 0.3297 -1251.8701 1105.6411)">
</image>
<rect x="-1286" y="-44" opacity="0.5" fill="#000519" width="1068" height="829"/>
<image overflow="visible" width="1450" height="856" xlink:href="../Desktop/Capture d’écran 2016-11-19 à 20.13.02.png"  transform="matrix(0.3387 0 0 0.3387 -743.2158 230.0444)">
</image>
<image overflow="visible" width="1452" height="1622" xlink:href="../Desktop/Capture d’écran 2016-11-19 à 20.10.12.png"  transform="matrix(0.3297 0 0 0.3297 -1251.8701 129.6411)">
</image>
<g>
	<g>
		<path fill="#D3D3DD" d="M-572,81c0,0.552-0.448,1-1,1h-360c-0.552,0-1-0.448-1-1V51c0-0.552,0.448-1,1-1h360c0.552,0,1,0.448,1,1
			V81z"/>
		<path fill="#000519" d="M-573,51v30h-360V51H-573 M-572.5,49h-360c-1.104,0-2.5,0.396-2.5,1.5v30c0,1.104,1.396,2.5,2.5,2.5h360
			c1.104,0,1.5-1.396,1.5-2.5v-30C-571,49.396-571.396,49-572.5,49L-572.5,49z"/>
	</g>
	<g>
		<path fill="#000519" d="M-591.381,59.276c-0.672,0-1.035,0.072-1.509,0.513c-0.254,0.276,0.155,0.861,0.369,0.629
			c0.324-0.243,0.716-0.387,1.14-0.387c1.109,0,2.012,0.978,2.012,2.18c0,0.29-0.055,0.566-0.15,0.82
			c-0.175,0.348,0.554,0.489,0.692,0.117c0.093-0.296,0.154-0.607,0.154-0.937C-588.673,60.593-589.888,59.276-591.381,59.276z"/>
		<path fill="#000519" d="M-580.855,74.02l-6.222-7.617c0.903-1.05,1.452-2.413,1.452-3.903c0-3.309-2.691-6-6-6s-6,2.691-6,6
			s2.691,6,6,6c0.916,0,1.781-0.212,2.558-0.581l6.275,7.682c0.247,0.302,0.606,0.459,0.969,0.459c0.278,0,0.558-0.092,0.79-0.282
			C-580.498,75.342-580.419,74.554-580.855,74.02z M-595.625,62.5c0-2.206,1.794-4,4-4s4,1.794,4,4s-1.794,4-4,4
			S-595.625,64.706-595.625,62.5z"/>
	</g>
</g>
<g>
	<g>
		<path fill="#D3D3DD" d="M673,1065c0,0.552-0.447,1-1,1H312c-0.552,0-1-0.448-1-1v-30c0-0.552,0.448-1,1-1h360c0.553,0,1,0.448,1,1
			V1065z"/>
		<path fill="#000519" d="M672,1035v30H312v-30H672 M672.5,1033h-360c-1.104,0-2.5,0.396-2.5,1.5v30c0,1.104,1.396,2.5,2.5,2.5h360
			c1.104,0,1.5-1.396,1.5-2.5v-30C674,1033.396,673.604,1033,672.5,1033L672.5,1033z"/>
	</g>
	<g>
		<path fill="#000519" d="M653.619,1043.276c-0.672,0-1.035,0.072-1.509,0.513c-0.255,0.276,0.155,0.861,0.369,0.629
			c0.324-0.243,0.716-0.387,1.14-0.387c1.109,0,2.012,0.978,2.012,2.18c0,0.29-0.055,0.566-0.15,0.82
			c-0.175,0.348,0.555,0.489,0.692,0.117c0.093-0.296,0.154-0.607,0.154-0.937C656.327,1044.593,655.112,1043.276,653.619,1043.276z
			"/>
		<path fill="#000519" d="M664.145,1058.02l-6.222-7.617c0.903-1.05,1.452-2.413,1.452-3.903c0-3.309-2.691-6-6-6s-6,2.691-6,6
			s2.691,6,6,6c0.916,0,1.781-0.212,2.558-0.581l6.275,7.682c0.247,0.302,0.606,0.459,0.97,0.459c0.277,0,0.557-0.092,0.789-0.282
			C664.502,1059.342,664.581,1058.554,664.145,1058.02z M649.375,1046.5c0-2.206,1.795-4,4-4s4,1.794,4,4s-1.795,4-4,4
			S649.375,1048.706,649.375,1046.5z"/>
	</g>
</g>
<g>
	<g>
		<path fill="#D3D3DD" d="M-583,1059c0,0.552-0.448,1-1,1h-360c-0.552,0-1-0.448-1-1v-30c0-0.552,0.448-1,1-1h360
			c0.552,0,1,0.448,1,1V1059z"/>
		<path fill="#000519" d="M-584,1029v30h-360v-30H-584 M-583.5,1027h-360c-1.104,0-2.5,0.396-2.5,1.5v30c0,1.104,1.396,2.5,2.5,2.5
			h360c1.104,0,1.5-1.396,1.5-2.5v-30C-582,1027.396-582.396,1027-583.5,1027L-583.5,1027z"/>
	</g>
	<g>
		<path fill="#000519" d="M-602.381,1037.276c-0.672,0-1.035,0.072-1.509,0.513c-0.255,0.276,0.155,0.861,0.369,0.629
			c0.324-0.243,0.716-0.387,1.14-0.387c1.109,0,2.012,0.978,2.012,2.18c0,0.29-0.055,0.566-0.15,0.82
			c-0.175,0.348,0.555,0.489,0.692,0.117c0.093-0.296,0.154-0.607,0.154-0.937C-599.673,1038.593-600.888,1037.276-602.381,1037.276
			z"/>
		<path fill="#000519" d="M-591.855,1052.02l-6.222-7.617c0.903-1.05,1.452-2.413,1.452-3.903c0-3.309-2.691-6-6-6s-6,2.691-6,6
			s2.691,6,6,6c0.916,0,1.781-0.212,2.558-0.581l6.275,7.682c0.247,0.302,0.606,0.459,0.97,0.459c0.277,0,0.557-0.092,0.789-0.282
			C-591.498,1053.342-591.419,1052.554-591.855,1052.02z M-606.625,1040.5c0-2.206,1.795-4,4-4s4,1.794,4,4s-1.795,4-4,4
			S-606.625,1042.706-606.625,1040.5z"/>
	</g>
</g>
<rect x="321" y="1043" fill="none" width="152.5" height="15"/>
<text transform="matrix(1 0 0 1 321 1055.0698)" font-family="'MyriadPro-Regular'" font-size="17">Terminal </text>
<line fill="none" stroke="#000519" stroke-width="2" stroke-miterlimit="10" x1="386" y1="1039" x2="386" y2="1058"/>
<rect x="-936" y="1038" fill="none" width="152.5" height="15"/>
<text transform="matrix(1 0 0 1 -936 1050.0698)" font-family="'MyriadPro-Regular'" font-size="17">Terminal </text>
<line fill="none" stroke="#000519" stroke-width="2" stroke-miterlimit="10" x1="-871" y1="1034" x2="-871" y2="1053"/>
<rect x="-926" y="58" fill="none" width="152.5" height="15"/>
<text transform="matrix(1 0 0 1 -926 70.0698)" font-family="'MyriadPro-Regular'" font-size="17">Terminal </text>
<line fill="none" stroke="#000519" stroke-width="2" stroke-miterlimit="10" x1="-861" y1="54" x2="-861" y2="73"/>
<path fill="#02006C" d="M-790,1381.012v-7.568l-10.123-2.477c-0.506-3.654-1.408-7.17-2.742-10.485l7.565-7.202l-3.772-6.555
	l-9.995,2.938c-2.25-2.877-4.841-5.471-7.72-7.719l2.918-9.953l-6.553-3.783l-7.614,7.507c-3.322-1.339-6.964-2.288-10.964-2.794
	v-0.004l-1.414-8.916h-7.567l-4.019,8.959v0.003c-2,0.526-6.468,1.488-9.758,2.833l0.305-0.031l-6.828-7.463l-6.473,3.784
	l2.683,10.023l0.055,0.061c-2.812,2.234-5.338,4.803-7.541,7.643l-0.104-0.062l-9.782-2.969l-3.783,6.554l7.301,7.359l0.133,0.516
	c-1.293,3.278-2.206,6.792-2.691,10.792h-0.172l-10.345,1.443v7.568l10.415,3.988h0.184c0.531,3,1.486,6.385,2.813,9.635
	l-0.226-0.185l-7.417,6.804l3.784,6.474l10-2.667l0.233-0.155c2.206,2.775,4.735,5.271,7.531,7.453l-0.166,0.286l-2.943,9.735
	l6.555,3.782l7.345-7.277l-0.596-0.257c3.241,1.288,7.488,2.207,9.488,2.709v0.002l4.019,10.661h7.567l1.414-10.674v-0.002
	c4-0.51,7.557-1.439,10.802-2.739l7.618,7.669l6.692-3.783l-2.913-10.181c2.81-2.204,5.384-4.736,7.594-7.539l10.136,2.951
	l3.793-6.553l-7.592-7.25c1.333-3.289,2.199-6.773,2.716-10.396L-790,1381.012z M-844.248,1406.069
	c-15.98,0-28.935-12.953-28.935-28.934s12.955-28.935,28.935-28.935c15.98,0,28.935,12.954,28.935,28.935
	S-828.267,1406.069-844.248,1406.069z"/>
<path fill="#008AD4" d="M-629,1379.752v-7.568l-9.16-2.477c-0.508-3.654-0.926-7.169-2.262-10.484l7.809-7.203l-3.652-6.554
	l-9.936,2.937c-2.25-2.877-4.812-5.471-7.689-7.719l2.932-9.952l-6.547-3.784l-8.069,7.507c-3.324-1.339-8.425-2.288-11.425-2.794
	v-0.002l-0.486-7.658h-7.568l-3.945,7.699v0.004c-4,0.525-6.504,1.488-9.797,2.832l0.289-0.031l-6.838-7.463l-6.479,3.784
	l2.682,10.022l0.055,0.061c-2.814,2.235-5.342,4.803-7.543,7.643l-0.104-0.062l-9.782-2.969l-3.785,6.554l7.303,7.359l0.133,0.646
	c-1.295,3.279-2.207,7.922-2.691,10.922h-0.172l-12.271,1.184v7.568l12.34,4.248h0.186c0.529,4,1.484,6.256,2.812,9.504
	l-0.227-0.249l-7.418,6.771l3.785,6.459l10-2.677l0.232-0.16c2.205,2.776,4.734,5.272,7.531,7.453l-0.166,0.286l-2.943,9.734
	l6.555,3.78l7.346-7.276l-0.559-0.259c3.24,1.289,5.525,2.21,9.525,2.71v0.003l3.945,11.92h7.568l0.486-11.933v-0.003
	c3-0.51,8.02-1.438,11.266-2.739l7.85,7.671l6.807-3.785l-2.855-10.181c2.811-2.202,5.412-4.734,7.623-7.539l10.15,2.952
	l3.801-6.554l-7.588-7.25c1.332-3.289,1.237-6.771,1.755-10.396L-629,1379.752z M-681.322,1392.226
	c-9.029,0-16.35-7.319-16.35-16.35c0-9.029,7.32-16.349,16.35-16.349c9.031,0,16.352,7.319,16.352,16.349
	C-664.971,1384.906-672.291,1392.226-681.322,1392.226z"/>
<path fill="#0023AC" d="M-712,1316.683v-7.567l-8.402-2.478c-0.506-3.656-0.549-7.169-1.883-10.485l7.998-7.201l-3.559-6.555
	l-9.889,2.936c-2.25-2.876-4.787-5.469-7.666-7.718l2.947-9.953l-6.543-3.784l-8.323,7.507c-3.326-1.339-8.681-2.287-11.681-2.794
	v-0.002l0.027-7.588h-7.567l-5.46,7.63v0.002c-4,0.526-5.747,1.489-9.039,2.833l0.667-0.031l-6.649-7.463l-6.382,3.785l2.728,10.022
	l0.079,0.06c-2.813,2.236-5.329,4.802-7.531,7.643l-0.098-0.062l-9.781-2.969l-3.78,6.555l7.301,7.358l0.134,1.181
	c-1.293,3.278-2.206,9.456-2.69,11.456h-0.173l-12.786,0.114v7.568l12.856,5.317h0.185c0.53,4,1.484,5.72,2.812,8.971l-0.227-0.52
	l-7.416,6.64l3.783,6.392l10-2.711l0.234-0.176c2.206,2.777,4.735,5.264,7.531,7.447l-0.167,0.277l-2.942,9.734l6.555,3.779
	l7.344-7.278l-1.315-0.258c3.241,1.29,6.768,2.209,8.768,2.711v0.002l5.46,11.989h7.567l-0.027-12.002v-0.002
	c3-0.51,8.279-1.439,11.521-2.742l7.979,7.672l6.875-3.783l-2.826-10.182c2.811-2.203,5.43-4.734,7.639-7.537l10.162,2.949
	l3.801-6.553l-7.582-7.25c1.332-3.29,0.479-6.772,0.997-10.396L-712,1316.683z M-762.806,1333.621
	c-11.495,0-20.813-9.319-20.813-20.814c0-11.496,9.318-20.813,20.813-20.813c11.496,0,20.814,9.318,20.814,20.813
	C-741.992,1324.302-751.311,1333.621-762.806,1333.621z"/>
<path fill="#02006C" d="M-506,77.38v-2.434l-3.354-0.796c-0.163-1.175-0.502-2.306-0.931-3.373l2.409-2.316l-1.226-2.108
	l-3.221,0.945c-0.724-0.925-1.56-1.76-2.486-2.483l0.937-3.201l-2.109-1.217l-2.471,2.415C-519.52,62.38-521,62.075-522,61.913
	v-0.001L-522.411,59h-2.434L-526,61.793v0.067c-1,0.169-2.149,0.512-3.207,0.944l0.063,0.006l-2.213-2.392l-2.091,1.221l0.859,3.226
	l0.015,0.021c-0.904,0.719-1.718,1.545-2.426,2.459l-0.034-0.02l-3.147-0.955l-1.217,2.108l2.348,2.367l0.043,0.425
	c-0.416,1.055-0.709,1.73-0.866,3.73h-0.055L-541,74.946v2.434l3.095,1.62h0.06c0.17,1,0.478,1.885,0.904,2.931l-0.072-0.144
	l-2.386,2.146l1.217,2.061l3.216-0.868l0.075-0.055c0.709,0.893,1.523,1.693,2.422,2.395l-0.053,0.09l-0.947,3.131l2.108,1.215
	l2.362-2.34l-0.123-0.083c1.043,0.414,2.121,0.709,3.121,0.871v0.11l1.155,3.539h2.434l0.411-3.543v-0.056
	c1-0.164,2.453-0.49,3.496-0.909l2.461,2.453l2.158-1.224l-0.935-3.278c0.904-0.709,1.733-1.525,2.444-2.427l3.261,0.949l1.22-2.108
	l-2.442-2.332c0.429-1.059,0.805-2.179,0.972-3.344L-506,77.38z M-523.645,85.44c-5.14,0-9.306-4.166-9.306-9.306
	c0-5.14,4.167-9.306,9.306-9.306c5.14,0,9.307,4.167,9.307,9.306C-514.338,81.274-518.504,85.44-523.645,85.44z"/>
<path fill="#008AD4" d="M-455,76.976v-2.435l-2.652-0.796c-0.164-1.175-0.151-2.306-0.581-3.372l2.585-2.317l-1.138-2.108
	l-3.177,0.944c-0.724-0.925-1.539-1.759-2.464-2.482l0.948-3.201l-2.104-1.217l-2.668,2.415c-1.069-0.431-2.748-0.736-3.748-0.898
	v-0.132L-470.008,59h-2.434L-474,61.52v0.001c-1,0.169-1.947,0.479-3.006,0.911l0.166-0.01l-2.164-2.4l-2.065,1.217l0.872,3.224
	l0.022,0.02c-0.905,0.719-1.715,1.544-2.423,2.458l-0.033-0.02l-3.145-0.955l-1.217,2.108l2.349,2.367l0.043,0.127
	c-0.417,1.055-0.71,2.433-0.866,3.433h-0.056L-490,74.541v2.435l4.498,2.024h0.06c0.17,1,0.478,1.683,0.904,2.728l-0.073-0.245
	l-2.386,2.096l1.217,2.037l3.216-0.881l0.075-0.062c0.709,0.893,1.523,1.691,2.422,2.392l-0.053,0.09l-0.947,3.13l2.108,1.215
	l2.363-2.341l-0.325-0.083c1.042,0.415,1.919,0.711,2.919,0.872v0.111l1.558,3.944h2.434l0.008-3.948v-0.056
	c1-0.164,2.654-0.49,3.698-0.908l2.562,2.453l2.208-1.224l-0.909-3.278c0.904-0.708,1.745-1.524,2.456-2.427l3.268,0.949
	l1.224-2.109l-2.44-2.332c0.429-1.059,0.105-2.179,0.271-3.344L-455,76.976z M-471.241,80.987c-2.904,0-5.259-2.354-5.259-5.259
	c0-2.904,2.354-5.258,5.259-5.258s5.259,2.354,5.259,5.258C-465.982,78.633-468.337,80.987-471.241,80.987z"/>
<path fill="#0023AC" d="M-481,56.69v-2.434l-2.756-0.797c-0.163-1.176-0.204-2.306-0.633-3.373l2.559-2.316l-1.151-2.108
	l-3.184,0.944c-0.724-0.925-1.542-1.759-2.467-2.482l0.947-3.201l-2.105-1.217l-2.564,2.415c-1.069-0.431-2.645-0.736-3.645-0.899
	v0.109L-496.217,39h-2.434l-1.35,2.344V41.29c-2,0.17-2.052,0.451-3.11,0.884l0.113-0.024l-2.189-2.407l-2.079,1.214l0.865,3.222
	l0.019,0.019c-0.905,0.719-1.717,1.544-2.425,2.458l-0.033-0.02l-3.146-0.955l-1.216,2.108l2.348,2.367l0.043,0.271
	c-0.416,1.054-0.709,3.575-0.865,3.575h-0.056L-516,54.256v2.434l4.29,2.31h0.06c0.17,1,0.477,1.54,0.904,2.585l-0.073-0.318
	l-2.385,2.061l1.217,2.019l3.216-0.891l0.075-0.065c0.709,0.893,1.522,1.688,2.422,2.391l-0.053,0.087l-0.946,3.129l2.108,1.215
	l2.362-2.342l-0.22-0.083c1.042,0.415,2.023,0.711,3.023,0.872v0.133l1.35,4.207h2.434l0.217-4.212v-0.066
	c1-0.164,2.55-0.496,3.593-0.915l2.51,2.451l2.183-1.225l-0.923-3.279c0.904-0.708,1.739-1.524,2.45-2.426l3.265,0.947l1.221-2.108
	l-2.44-2.333c0.429-1.058,0.208-2.178,0.375-3.344L-481,56.69z M-497.45,62.138c-3.697,0-6.694-2.997-6.694-6.694
	s2.997-6.694,6.694-6.694s6.695,2.997,6.695,6.694S-493.752,62.138-497.45,62.138z"/>
<path fill="#02006C" d="M743,1053.743v-2.246l-3.132-0.735c-0.149-1.084-0.481-2.128-0.878-3.112l2.213-2.137l-1.135-1.945
	l-2.975,0.872c-0.668-0.854-1.441-1.624-2.295-2.291l0.863-2.954l-1.945-1.123l-1.86,2.228c-0.986-0.397-1.856-0.679-2.856-0.829
	v-0.001l-1.218-2.468h-2.246l-1.536,2.57v-0.043c0,0.156-1.748,0.42-2.725,0.818l0.177-0.02l-1.984-2.221l-1.899,1.12l0.807,2.974
	l0.022,0.017c-0.835,0.663-1.581,1.425-2.235,2.268l-0.029-0.019l-2.903-0.881l-1.122,1.945l2.168,2.185l0.039,0.119
	c-0.384,0.973-0.654,2.169-0.799,3.169h-0.051l-2.465,0.497v2.246l2.485,1.257h0.054c0.158,1,0.441,1.858,0.836,2.823l-0.067-0.073
	l-2.202,2.01l1.123,1.917l2.969-0.793l0.068-0.047c0.655,0.824,1.406,1.564,2.236,2.211l-0.05,0.085l-0.874,2.889l1.946,1.123
	l2.18-2.16l-0.349-0.076c0.962,0.382,2.645,0.655,2.645,0.804v0.062l1.536,3.226h2.246l0.218-3.23v-0.032
	c2-0.151,2.345-0.442,3.308-0.828l2.312,2.268l2.011-1.126l-0.852-3.023c0.833-0.654,1.604-1.407,2.26-2.239l3.011,0.875
	l1.128-1.945l-2.252-2.152c0.396-0.976,0.78-2.01,0.934-3.085L743,1053.743z M726.645,1061.18c-4.742,0-8.588-3.844-8.588-8.587
	c0-4.743,3.846-8.588,8.588-8.588s8.588,3.845,8.588,8.588C735.232,1057.335,731.387,1061.18,726.645,1061.18z"/>
<path fill="#008AD4" d="M791,1053.369v-2.247l-2.954-0.735c-0.151-1.084-0.394-2.127-0.79-3.112l2.26-2.138l-1.114-1.945
	l-2.964,0.872c-0.668-0.854-1.436-1.624-2.289-2.291l0.866-2.954l-1.944-1.123l-2.537,2.228c-0.986-0.397-2.533-0.679-3.533-0.829
	v0.088l0.139-2.184h-2.246l-0.893,2.196v-0.043c-1,0.156-2.069,0.419-3.047,0.818l0.016-0.02l-2.063-2.221l-1.941,1.121l0.788,2.973
	l0.012,0.017c-0.836,0.664-1.588,1.425-2.241,2.269l-0.032-0.019l-2.904-0.881l-1.123,1.945l2.168,2.184l0.039,0.306
	c-0.385,0.974-0.654,2.356-0.799,3.356h-0.051l-2.82,0.123v2.247l2.84,1.631h0.056c0.157,1,0.44,1.671,0.835,2.636l-0.067-0.167
	l-2.202,1.964l1.124,1.894l2.968-0.806l0.068-0.053c0.655,0.824,1.406,1.562,2.236,2.209l-0.05,0.083l-0.874,2.888l1.945,1.122
	l2.181-2.16l-0.025-0.077c0.961,0.382,1.966,0.656,2.966,0.804v0.063l0.893,3.6h2.246l-0.139-3.604v-0.032
	c1-0.151,2.521-0.442,3.484-0.828l2.4,2.269l2.056-1.127l-0.83-3.023c0.835-0.654,1.616-1.406,2.272-2.239l3.017,0.876l1.131-1.946
	l-2.252-2.152c0.396-0.976,0.604-2.01,0.758-3.085L791,1053.369z M775,1057.071c-2.68,0-4.853-2.172-4.853-4.853
	s2.173-4.853,4.853-4.853s4.854,2.172,4.854,4.853S777.68,1057.071,775,1057.071z"/>
<path fill="#0023AC" d="M766,1034.65v-2.246l-2.547-0.735c-0.149-1.085-0.188-2.128-0.584-3.112l2.359-2.137l-1.062-1.945
	l-2.938,0.871c-0.668-0.854-1.423-1.623-2.277-2.291l0.874-2.954l-1.941-1.123l-2.443,2.228c-0.988-0.397-2.44-0.679-3.44-0.829
	v-0.063l-0.047-2.314h-2.246l-1.707,2.327v0.032c-1,0.156-1.662,0.457-2.639,0.856l0.22-0.001l-1.963-2.211l-1.889,1.125
	l0.812,2.975l0.025,0.019c-0.835,0.664-1.581,1.426-2.234,2.269l-0.028-0.018l-2.903-0.881l-1.121,1.945l2.166,2.184l0.04,0.166
	c-0.384,0.973-0.654,3.215-0.798,3.215h-0.052l-3.636,0.404v2.246l3.656,1.35h0.055c0.158,1,0.441,1.812,0.835,2.777l-0.067-0.097
	l-2.201,1.999l1.123,1.912l2.968-0.798l0.069-0.048c0.654,0.824,1.405,1.564,2.235,2.212l-0.05,0.083l-0.873,2.89l1.945,1.123
	l2.18-2.16l-0.434-0.077c0.963,0.383,2.559,0.656,2.559,0.805v-0.088l1.707,3.469h2.246l0.047-3.473v0.044
	c1-0.151,2.43-0.405,3.393-0.792l2.354,2.288l2.034-1.117l-0.843-3.02c0.834-0.654,1.61-1.404,2.267-2.235l3.015,0.876l1.128-1.945
	l-2.251-2.151c0.396-0.977,0.195-2.01,0.349-3.085L766,1034.65z M750.816,1039.678c-3.412,0-6.178-2.766-6.178-6.178
	s2.766-6.177,6.178-6.177c3.411,0,6.177,2.766,6.177,6.177S754.228,1039.678,750.816,1039.678z"/>
<path fill="#02006C" d="M486,414.012v-7.568l-10.373-2.477c-0.506-3.654-1.533-7.17-2.867-10.485l7.503-7.202l-3.804-6.555
	l-10.01,2.938c-2.25-2.877-4.849-5.471-7.728-7.719l2.914-9.953l-6.555-3.783l-7.365,7.507c-3.322-1.339-6.715-2.288-10.715-2.794
	v-0.004L435.086,357h-7.567L424,365.959v0.003c-2,0.526-6.718,1.488-10.008,2.833l0.18-0.031l-6.891-7.463l-6.504,3.784
	l2.667,10.023l0.047,0.061c-2.812,2.234-5.342,4.803-7.544,7.643l-0.106-0.062l-9.783-2.969l-3.784,6.554l7.301,7.359l0.133,0.516
	c-1.293,3.278-2.206,6.792-2.691,10.792h-0.172L377,406.443v7.568l9.915,3.988h0.184c0.531,3,1.486,6.385,2.813,9.635l-0.226-0.185
	l-7.417,6.804l3.784,6.474l10-2.667l0.233-0.155c2.206,2.775,4.735,5.271,7.531,7.453l-0.166,0.286l-2.943,9.735l6.555,3.782
	l7.345-7.277l-0.346-0.257c3.241,1.288,7.738,2.207,9.738,2.709v0.002L427.519,465h7.567L437,454.326v-0.002
	c4-0.51,7.307-1.439,10.552-2.739l7.493,7.669l6.629-3.783l-2.944-10.181c2.81-2.204,5.368-4.736,7.579-7.539l10.128,2.951
	l3.79-6.553l-7.594-7.25c1.333-3.289,2.448-6.773,2.965-10.396L486,414.012z M431.252,439.069c-15.98,0-28.935-12.953-28.935-28.934
	s12.955-28.935,28.935-28.935c15.98,0,28.935,12.954,28.935,28.935S447.233,439.069,431.252,439.069z"/>
<path fill="#008AD4" d="M647,412.752v-7.568l-9.41-2.477c-0.508-3.654-1.051-7.169-2.387-10.484l7.746-7.203l-3.684-6.554
	l-9.951,2.937c-2.25-2.877-4.82-5.471-7.697-7.719l2.928-9.952l-6.549-3.784l-7.82,7.507c-3.324-1.339-8.176-2.288-11.176-2.794
	v-0.002L598.014,357h-7.568L587,364.699v0.004c-4,0.525-6.754,1.488-10.047,2.832l0.164-0.031l-6.9-7.463l-6.51,3.784l2.666,10.022
	l0.047,0.061c-2.814,2.235-5.346,4.803-7.547,7.643l-0.105-0.062l-9.783-2.969l-3.785,6.554l7.303,7.359l0.133,0.646
	c-1.295,3.279-2.207,7.922-2.691,10.922h-0.172L538,405.184v7.568L549.84,417h0.186c0.529,4,1.484,6.256,2.812,9.504l-0.227-0.249
	l-7.418,6.771l3.785,6.459l10-2.677l0.232-0.16c2.205,2.776,4.734,5.272,7.531,7.453l-0.166,0.286l-2.943,9.734l6.555,3.78
	l7.346-7.276l-0.309-0.259c3.24,1.289,5.775,2.21,9.775,2.71v0.003l3.445,11.92h7.568L599,453.067v-0.003
	c3-0.51,7.77-1.438,11.016-2.739l7.725,7.671l6.744-3.785l-2.887-10.181c2.811-2.202,5.396-4.734,7.607-7.539l10.143,2.952
	l3.797-6.554l-7.59-7.25c1.332-3.289,1.486-6.771,2.004-10.396L647,412.752z M594.178,425.226c-9.029,0-16.35-7.319-16.35-16.35
	c0-9.029,7.32-16.349,16.35-16.349c9.031,0,16.352,7.319,16.352,16.349C610.529,417.906,603.209,425.226,594.178,425.226z"/>
<path fill="#0023AC" d="M564,349.683v-7.567l-8.652-2.478c-0.506-3.656-0.674-7.169-2.008-10.485l7.936-7.201l-3.59-6.555
	l-9.904,2.936c-2.25-2.876-4.795-5.469-7.674-7.718l2.943-9.953l-6.545-3.784l-8.074,7.507c-3.326-1.339-8.432-2.287-11.432-2.794
	v-0.002L516.527,294h-7.566L504,301.63v0.002c-4,0.526-5.997,1.489-9.289,2.833l0.542-0.031l-6.711-7.463l-6.414,3.785l2.712,10.022
	l0.071,0.06c-2.813,2.236-5.333,4.802-7.535,7.643l-0.1-0.062l-9.782-2.969l-3.78,6.555l7.301,7.358l0.134,1.181
	c-1.293,3.278-2.206,9.456-2.69,11.456h-0.173L456,342.114v7.568L468.356,355h0.185c0.53,4,1.484,5.72,2.812,8.971l-0.227-0.52
	l-7.416,6.64l3.783,6.392l10-2.711l0.234-0.176c2.206,2.777,4.735,5.264,7.531,7.447l-0.167,0.277l-2.942,9.734l6.555,3.779
	l7.344-7.278l-1.065-0.258c3.241,1.29,7.018,2.209,9.018,2.711v0.002L508.961,402h7.566L517,389.998v-0.002
	c3-0.51,8.029-1.439,11.271-2.742l7.854,7.672l6.812-3.783l-2.857-10.182c2.811-2.203,5.414-4.734,7.623-7.537l10.154,2.949
	l3.797-6.553l-7.584-7.25c1.332-3.29,0.729-6.772,1.246-10.396L564,349.683z M512.693,366.621c-11.495,0-20.813-9.319-20.813-20.814
	c0-11.496,9.318-20.813,20.813-20.813c11.496,0,20.814,9.318,20.814,20.813C533.508,357.302,524.189,366.621,512.693,366.621z"/>
<path fill="#02006C" d="M753,91.743v-2.246l-3.132-0.735c-0.149-1.084-0.481-2.128-0.878-3.112l2.213-2.137l-1.135-1.945
	l-2.975,0.872c-0.668-0.854-1.441-1.624-2.295-2.291l0.863-2.954l-1.945-1.123l-1.86,2.228C740.87,77.901,740,77.62,739,77.47
	v-0.001L737.782,75h-2.246L734,77.57v-0.043c0,0.156-1.748,0.42-2.725,0.818l0.177-0.02l-1.984-2.221l-1.899,1.12l0.807,2.974
	l0.022,0.017c-0.835,0.663-1.581,1.425-2.235,2.268l-0.029-0.019l-2.903-0.881l-1.122,1.945l2.168,2.185l0.039,0.119
	C723.931,86.804,723.66,88,723.516,89h-0.051L721,89.497v2.246L723.485,93h0.054c0.158,1,0.441,1.858,0.836,2.823l-0.067-0.073
	l-2.202,2.01l1.123,1.917l2.969-0.793l0.068-0.047c0.655,0.824,1.406,1.564,2.236,2.211l-0.05,0.085l-0.874,2.889l1.946,1.123
	l2.18-2.16l-0.349-0.076c0.962,0.382,2.645,0.655,2.645,0.804v0.062l1.536,3.226h2.246l0.218-3.23v-0.032
	c2-0.151,2.345-0.442,3.308-0.828l2.312,2.268l2.011-1.126l-0.852-3.023c0.833-0.654,1.604-1.407,2.26-2.239l3.011,0.875
	l1.128-1.945l-2.252-2.152c0.396-0.976,0.78-2.01,0.934-3.085L753,91.743z M736.645,99.18c-4.742,0-8.588-3.844-8.588-8.587
	c0-4.743,3.846-8.588,8.588-8.588s8.588,3.845,8.588,8.588C745.232,95.335,741.387,99.18,736.645,99.18z"/>
<path fill="#008AD4" d="M801,91.369v-2.247l-2.954-0.735c-0.151-1.084-0.394-2.127-0.79-3.112l2.26-2.138l-1.114-1.945l-2.964,0.872
	c-0.668-0.854-1.436-1.624-2.289-2.291l0.866-2.954l-1.944-1.123l-2.537,2.228c-0.986-0.397-2.533-0.679-3.533-0.829v0.088
	L786.139,75h-2.246L783,77.196v-0.043c-1,0.156-2.069,0.419-3.047,0.818l0.016-0.02l-2.063-2.221l-1.941,1.121l0.788,2.973
	l0.012,0.017c-0.836,0.664-1.588,1.425-2.241,2.269l-0.032-0.019l-2.904-0.881l-1.123,1.945l2.168,2.184l0.039,0.306
	c-0.385,0.974-0.654,2.356-0.799,3.356h-0.051L769,89.123v2.247L771.84,93h0.056c0.157,1,0.44,1.671,0.835,2.636l-0.067-0.167
	l-2.202,1.964l1.124,1.894l2.968-0.806l0.068-0.053c0.655,0.824,1.406,1.562,2.236,2.209l-0.05,0.083l-0.874,2.888l1.945,1.122
	l2.181-2.16l-0.025-0.077c0.961,0.382,1.966,0.656,2.966,0.804v0.063l0.893,3.6h2.246L786,103.396v-0.032
	c1-0.151,2.521-0.442,3.484-0.828l2.4,2.269l2.056-1.127l-0.83-3.023c0.835-0.654,1.616-1.406,2.272-2.239l3.017,0.876l1.131-1.946
	l-2.252-2.152c0.396-0.976,0.604-2.01,0.758-3.085L801,91.369z M785,95.071c-2.68,0-4.853-2.172-4.853-4.853
	s2.173-4.853,4.853-4.853s4.854,2.172,4.854,4.853S787.68,95.071,785,95.071z"/>
<path fill="#0023AC" d="M776,72.65v-2.246l-2.547-0.735c-0.149-1.085-0.188-2.128-0.584-3.112l2.359-2.137l-1.062-1.945
	l-2.938,0.871c-0.668-0.854-1.423-1.623-2.277-2.291l0.874-2.954l-1.941-1.123l-2.443,2.228c-0.988-0.397-2.44-0.679-3.44-0.829
	v-0.063L761.953,56h-2.246L758,58.327v0.032c-1,0.156-1.662,0.457-2.639,0.856l0.22-0.001l-1.963-2.211l-1.889,1.125l0.812,2.975
	l0.025,0.019c-0.835,0.664-1.581,1.426-2.234,2.269l-0.028-0.018L747.4,62.49l-1.121,1.945l2.166,2.184l0.04,0.166
	c-0.384,0.973-0.654,3.215-0.798,3.215h-0.052L744,70.404v2.246l3.656,1.35h0.055c0.158,1,0.441,1.812,0.835,2.777l-0.067-0.097
	l-2.201,1.999l1.123,1.912l2.968-0.798l0.069-0.048c0.654,0.824,1.405,1.564,2.235,2.212l-0.05,0.083l-0.873,2.89l1.945,1.123
	l2.18-2.16l-0.434-0.077c0.963,0.383,2.559,0.656,2.559,0.805v-0.088L759.707,88h2.246L762,84.527v0.044
	c1-0.151,2.43-0.405,3.393-0.792l2.354,2.288l2.034-1.117l-0.843-3.02c0.834-0.654,1.61-1.404,2.267-2.235l3.015,0.876l1.128-1.945
	l-2.251-2.151c0.396-0.977,0.195-2.01,0.349-3.085L776,72.65z M760.816,77.678c-3.412,0-6.178-2.766-6.178-6.178
	s2.766-6.177,6.178-6.177c3.411,0,6.177,2.766,6.177,6.177S764.228,77.678,760.816,77.678z"/>
<path fill="#02006C" d="M-506,1051.61v-2.246l-2.968-0.735c-0.149-1.084-0.4-2.128-0.796-3.112l2.254-2.137l-1.114-1.945
	l-2.964,0.872c-0.668-0.854-1.436-1.624-2.29-2.291l0.866-2.954l-1.944-1.123l-2.023,2.228c-0.986-0.397-2.02-0.679-3.02-0.829
	v-0.001l-0.891-2.336h-2.246l-1.863,2.438v-0.043c0,0.156-1.584,0.42-2.561,0.818l0.258-0.02l-1.943-2.221l-1.879,1.12l0.817,2.974
	l0.028,0.017c-0.835,0.663-1.579,1.425-2.233,2.268l-0.028-0.019l-2.902-0.881l-1.122,1.945l2.168,2.185l0.039,0.185
	c-0.384,0.974-0.654,2.235-0.799,3.235h-0.051l-2.792,0.364v2.246l2.812,1.39h0.054c0.158,1,0.441,1.792,0.836,2.757l-0.067-0.106
	l-2.202,1.993l1.123,1.908l2.969-0.798l0.068-0.049c0.655,0.824,1.406,1.563,2.236,2.21l-0.05,0.084l-0.874,2.889l1.946,1.122
	l2.18-2.16l-0.512-0.076c0.962,0.382,2.481,0.655,2.481,0.804v0.062l1.863,3.358h2.246l-0.109-3.362v-0.032
	c2-0.151,2.508-0.442,3.471-0.828l2.393,2.268l2.052-1.126l-0.831-3.023c0.833-0.654,1.614-1.407,2.27-2.239l3.016,0.875l1.13-1.945
	l-2.251-2.152c0.396-0.976,0.618-2.01,0.771-3.085L-506,1051.61z M-522.028,1059.047c-4.742,0-8.588-3.844-8.588-8.587
	c0-4.743,3.846-8.588,8.588-8.588s8.588,3.845,8.588,8.588C-513.44,1055.203-517.286,1059.047-522.028,1059.047z"/>
<path fill="#008AD4" d="M-458,1051.237v-2.247l-2.791-0.735c-0.151-1.084-0.312-2.127-0.708-3.112l2.301-2.138l-1.094-1.945
	l-2.954,0.872c-0.668-0.854-1.43-1.624-2.284-2.291l0.869-2.954l-1.943-1.123l-2.7,2.228c-0.986-0.397-2.696-0.679-3.696-0.829
	v0.088l0.466-2.052h-2.246l-1.22,2.064v-0.043c-1,0.156-1.906,0.419-2.883,0.818l0.097-0.02l-2.022-2.221l-1.921,1.121l0.798,2.973
	l0.017,0.017c-0.836,0.664-1.585,1.425-2.239,2.269l-0.031-0.019l-2.903-0.881l-1.123,1.945l2.168,2.184l0.039,0.372
	c-0.385,0.974-0.654,2.422-0.799,3.422h-0.051l-3.147-0.01v2.247l3.167,1.763h0.056c0.157,1,0.44,1.605,0.835,2.569l-0.067-0.2
	l-2.202,1.947l1.124,1.885l2.968-0.81l0.068-0.055c0.655,0.824,1.406,1.561,2.236,2.208l-0.05,0.083l-0.874,2.888l1.945,1.122
	l2.181-2.16l-0.189-0.077c0.961,0.382,1.802,0.656,2.802,0.804v0.063l1.22,3.732h2.246l-0.466-3.736v-0.032
	c1-0.151,2.684-0.442,3.648-0.828l2.482,2.269l2.097-1.127l-0.81-3.023c0.835-0.654,1.626-1.406,2.283-2.239l3.022,0.876
	l1.133-1.946l-2.251-2.152c0.396-0.976,0.441-2.01,0.595-3.085L-458,1051.237z M-473.673,1054.939c-2.68,0-4.853-2.172-4.853-4.853
	s2.173-4.853,4.853-4.853s4.854,2.172,4.854,4.853S-470.993,1054.939-473.673,1054.939z"/>
<path fill="#0023AC" d="M-483,1032.518v-2.246l-2.383-0.735c-0.149-1.085-0.107-2.128-0.502-3.112l2.4-2.137l-1.041-1.945
	l-2.928,0.871c-0.668-0.854-1.417-1.623-2.272-2.291l0.876-2.954l-1.94-1.123l-2.606,2.228c-0.988-0.397-2.604-0.679-3.604-0.829
	v-0.063l0.28-2.182h-2.246l-2.034,2.194v0.032c-1,0.156-1.499,0.457-2.475,0.856l0.301-0.001l-1.922-2.211l-1.868,1.125l0.822,2.975
	l0.031,0.019c-0.835,0.664-1.579,1.426-2.232,2.269l-0.027-0.018l-2.902-0.881l-1.121,1.945l2.167,2.184l0.04,0.231
	c-0.384,0.973-0.654,3.281-0.798,3.281h-0.052l-3.963,0.272v2.246l3.983,1.482h0.055c0.158,1,0.441,1.746,0.835,2.711l-0.067-0.13
	l-2.201,1.982l1.123,1.903l2.968-0.802l0.069-0.05c0.654,0.824,1.405,1.563,2.235,2.211l-0.05,0.083l-0.873,2.89l1.945,1.122
	l2.18-2.16l-0.597-0.077c0.963,0.383,2.395,0.656,2.395,0.805v-0.088l2.034,3.602h2.246l-0.28-3.605v0.044
	c1-0.151,2.593-0.405,3.556-0.792l2.435,2.288l2.075-1.117l-0.822-3.02c0.834-0.654,1.621-1.404,2.277-2.235l3.02,0.876l1.13-1.945
	l-2.25-2.151c0.396-0.977,0.033-2.01,0.186-3.085L-483,1032.518z M-497.856,1037.545c-3.412,0-6.178-2.766-6.178-6.178
	s2.766-6.177,6.178-6.177c3.411,0,6.177,2.766,6.177,6.177S-494.445,1037.545-497.856,1037.545z"/>
</svg>
